<svg width="48" height="52" viewBox="0 0 48 52" fill="none" xmlns="http://www.w3.org/2000/svg">
<g filter="url(#filter0_d_567_829)">
<path d="M4 11C4 6.02944 8.02944 2 13 2H34.2493C39.2198 2 43.2493 6.02944 43.2493 11V32.2493C43.2493 37.2198 39.2198 41.2493 34.2493 41.2493H33.437H30.5732C29.0531 41.2493 27.6685 42.1235 27.015 43.4959C25.6184 46.4287 21.4729 46.5076 19.9656 43.6302L19.8576 43.424C19.1573 42.087 17.7728 41.2493 16.2635 41.2493H13.8123H13C8.02944 41.2493 4 37.2198 4 32.2493V11Z" fill="#00AE6D"/>
<path fill-rule="evenodd" clip-rule="evenodd" d="M25.96 11.9999C27.8476 11.9999 29.8197 13.2582 29.8965 15.0194C31.6612 15.2253 33.0732 16.9101 33.0732 18.7323C33.0732 19.5786 32.7891 20.4406 32.0908 21.1649C32.9731 22.0416 33.3574 23.0249 33.3574 23.955C33.3574 25.7925 32.1139 27.0653 30.3184 27.0653C29.7505 27.0653 29.1444 26.9206 28.4922 26.6005C28.0165 27.0274 26.8502 27.6301 25.4922 27.6835C25.7608 26.4712 26.5971 24.7935 27.1035 23.871C26.7613 23.8401 26.4628 23.7634 26.2031 23.6512C25.2053 25.641 24.5099 27.3041 24.5098 28.3768C24.5098 29.4593 24.6474 30.824 24.6475 31.3046C24.6475 31.6705 24.1643 31.8993 23.4277 31.8993C22.6911 31.8993 22.208 31.6705 22.208 31.3046C22.2081 30.824 22.3457 29.4593 22.3457 28.3768C22.3456 27.2245 21.538 25.3903 20.6211 23.6639C20.3687 23.7687 20.0805 23.8413 19.752 23.871C20.2584 24.7935 21.0957 26.4712 21.3643 27.6835C20.0061 27.6301 18.839 27.0274 18.3633 26.6005C17.7111 26.9206 17.1049 27.0653 16.5371 27.0653C14.7417 27.0652 13.499 25.7924 13.499 23.955C13.499 23.025 13.8825 22.0416 14.7646 21.1649C14.0664 20.4406 13.7754 19.5786 13.7754 18.7323C13.7754 16.9102 15.1944 15.2255 16.959 15.0194C17.0357 13.2582 19.008 12 20.8955 11.9999C21.8622 11.9999 22.7601 12.2972 23.4277 12.9833C24.0953 12.2971 24.9932 11.9999 25.96 11.9999ZM21.9082 22.2626C21.827 22.4924 21.7195 22.7049 21.585 22.8964C22.135 23.8675 22.4758 24.5308 22.7988 25.2587L22.7871 22.66C22.4592 22.5862 22.1715 22.4528 21.9082 22.2626ZM24.9473 22.2626C24.6735 22.4604 24.3736 22.5961 24.0293 22.6678L24.0566 25.2509C24.3809 24.5331 24.6843 23.9245 25.2539 22.8749C25.1267 22.6892 25.0253 22.4835 24.9473 22.2626Z" fill="white"/>
</g>
<defs>
<filter id="filter0_d_567_829" x="0" y="0" width="47.249" height="56" filterUnits="userSpaceOnUse" color-interpolation-filters="sRGB">
<feFlood flood-opacity="0" result="BackgroundImageFix"/>
<feColorMatrix in="SourceAlpha" type="matrix" values="0 0 0 0 0 0 0 0 0 0 0 0 0 0 0 0 0 0 127 0" result="hardAlpha"/>
<feOffset dy="2"/>
<feGaussianBlur stdDeviation="2"/>
<feComposite in2="hardAlpha" operator="out"/>
<feColorMatrix type="matrix" values="0 0 0 0 0 0 0 0 0 0 0 0 0 0 0 0 0 0 0.25 0"/>
<feBlend mode="normal" in2="BackgroundImageFix" result="effect1_dropShadow_567_829"/>
<feBlend mode="normal" in="SourceGraphic" in2="effect1_dropShadow_567_829" result="shape"/>
</filter>
</defs>
</svg>
