<svg width="47" height="52" viewBox="0 0 47 52" fill="none" xmlns="http://www.w3.org/2000/svg">
<g filter="url(#filter0_d_2268_4767)">
<path d="M4 11C4 6.02944 8.02944 2 13 2H34C38.9706 2 43 6.02944 43 11V32C43 36.9706 38.9706 41 34 41H33.25H30.4044C28.8939 41 27.5182 41.8687 26.8688 43.2324C25.4811 46.1465 21.3619 46.225 19.8642 43.3658L19.7569 43.1609C19.061 41.8324 17.6853 41 16.1856 41H13.75H13C8.02944 41 4 36.9706 4 32V11Z" fill="#8D6E63"/>
</g>
<path d="M24 14V30M30 16L18 28M32 22H16M30 28L18 16" stroke="white" stroke-width="2" stroke-linecap="round" stroke-linejoin="round"/>
<defs>
<filter id="filter0_d_2268_4767" x="0" y="0" width="47" height="56" filterUnits="userSpaceOnUse" color-interpolation-filters="sRGB">
<feFlood flood-opacity="0" result="BackgroundImageFix"/>
<feColorMatrix in="SourceAlpha" type="matrix" values="0 0 0 0 0 0 0 0 0 0 0 0 0 0 0 0 0 0 127 0" result="hardAlpha"/>
<feOffset dy="2"/>
<feGaussianBlur stdDeviation="2"/>
<feComposite in2="hardAlpha" operator="out"/>
<feColorMatrix type="matrix" values="0 0 0 0 0 0 0 0 0 0 0 0 0 0 0 0 0 0 0.25 0"/>
<feBlend mode="normal" in2="BackgroundImageFix" result="effect1_dropShadow_2268_4767"/>
<feBlend mode="normal" in="SourceGraphic" in2="effect1_dropShadow_2268_4767" result="shape"/>
</filter>
</defs>
</svg>
