<svg width="47" height="51" viewBox="0 0 47 51" fill="none" xmlns="http://www.w3.org/2000/svg">
<g filter="url(#filter0_d_2268_4644)">
<path d="M4 11C4 6.02944 8.02944 2 13 2H34C38.9706 2 43 6.02944 43 11V32C43 36.9706 38.9706 41 34 41H33.25H29.9491C28.6692 41 27.4538 41.5615 26.6242 42.5361C24.8982 44.5637 21.775 44.5876 20.0182 42.5867L19.9543 42.514C19.1094 41.5517 17.8909 41 16.6103 41H13.75H13C8.02944 41 4 36.9706 4 32V11Z" fill="#3779F4"/>
<path d="M18.5715 13.4496H27.9829C28.0103 13.4614 28.0377 13.4795 28.067 13.4832C29.3744 13.6602 30.2077 14.391 30.6178 15.6257C31.0244 16.8495 31.4356 18.0714 31.8549 19.2908C31.8897 19.3925 31.9783 19.4978 32.0715 19.5523C32.7247 19.9363 33.1048 20.4901 33.1112 21.2481C33.124 22.9059 33.1213 24.5628 33.1121 26.2205C33.1085 26.866 32.8198 27.3835 32.2908 27.7548C32.1665 27.8429 32.1336 27.9337 32.1345 28.0744C32.1409 28.7389 32.1409 29.4035 32.1354 30.068C32.1309 30.6399 31.7252 31.0458 31.1487 31.0594C30.8335 31.0666 30.5183 31.0648 30.203 31.0603C29.5854 31.0512 29.187 30.6472 29.1852 30.0299C29.1825 29.4797 29.1852 28.9296 29.1843 28.3803C29.1843 28.3004 29.1779 28.2205 29.1743 28.1434L17.3717 28.1425V28.4048C17.3717 28.9622 17.3762 29.5197 17.3698 30.078C17.3635 30.6381 16.9596 31.0439 16.3959 31.0585C16.0807 31.0666 15.7655 31.0639 15.4502 31.0603C14.818 31.0521 14.4215 30.6509 14.4187 30.0199C14.4169 29.378 14.4132 28.7362 14.4215 28.0953C14.4233 27.9355 14.3813 27.8383 14.2451 27.7403C13.7371 27.3735 13.4466 26.8715 13.4429 26.2423C13.4338 24.5692 13.4292 22.8968 13.4448 21.2246C13.4512 20.4847 13.8294 19.9427 14.4644 19.5642C14.564 19.5052 14.6627 19.3971 14.6992 19.29C15.1341 18.0281 15.5544 16.7616 15.9829 15.4971C16.2652 14.6628 16.8079 14.0545 17.6247 13.7131C17.9244 13.5879 18.2542 13.5361 18.5713 13.4508L18.5715 13.4496ZM29.772 19.3189C29.7501 19.2408 29.7364 19.1818 29.7181 19.1255C29.3901 18.1495 29.0621 17.1736 28.7323 16.1976C28.5459 15.6474 28.2316 15.4214 27.6541 15.4214C24.7323 15.4205 21.8114 15.4205 18.8894 15.4214C18.3266 15.4214 18.0077 15.652 17.8268 16.1876C17.4942 17.1699 17.1644 18.1531 16.8337 19.1364C16.8154 19.1918 16.8063 19.2499 16.7898 19.3189H29.7729L29.772 19.3189ZM29.666 25.1925C30.4865 25.1971 31.1516 24.5452 31.1544 23.7345C31.1571 22.9311 30.4837 22.2602 29.6733 22.262C28.8657 22.2638 28.2106 22.9111 28.2042 23.7146C28.1978 24.5344 28.8437 25.188 29.666 25.1925ZM18.3513 23.7218C18.3468 22.9066 17.6798 22.2511 16.8657 22.262C16.0608 22.2729 15.4039 22.9302 15.4011 23.7273C15.3984 24.5353 16.0644 25.1944 16.8822 25.1926C17.7054 25.1917 18.355 24.5398 18.3513 23.7218Z" fill="white"/>
</g>
<defs>
<filter id="filter0_d_2268_4644" x="0" y="0" width="47" height="56" filterUnits="userSpaceOnUse" color-interpolation-filters="sRGB">
<feFlood flood-opacity="0" result="BackgroundImageFix"/>
<feColorMatrix in="SourceAlpha" type="matrix" values="0 0 0 0 0 0 0 0 0 0 0 0 0 0 0 0 0 0 127 0" result="hardAlpha"/>
<feOffset dy="2"/>
<feGaussianBlur stdDeviation="2"/>
<feComposite in2="hardAlpha" operator="out"/>
<feColorMatrix type="matrix" values="0 0 0 0 0 0 0 0 0 0 0 0 0 0 0 0 0 0 0.25 0"/>
<feBlend mode="normal" in2="BackgroundImageFix" result="effect1_dropShadow_2268_4644"/>
<feBlend mode="normal" in="SourceGraphic" in2="effect1_dropShadow_2268_4644" result="shape"/>
</filter>
</defs>
</svg>
